<svg xmlns="http://www.w3.org/2000/svg" width="12" height="12" viewBox="0 0 12 12"><g transform="translate(-1239 -404)"><g transform="translate(1239 412)" fill="#fff" stroke="#707070" stroke-width="1"><rect width="12" height="4" rx="2" stroke="none"/><rect x="0.5" y="0.5" width="11" height="3" rx="1.5" fill="none"/></g><g transform="translate(1239 409)" fill="#fff" stroke="#707070" stroke-width="1"><rect width="3" height="7" rx="1.5" stroke="none"/><rect x="0.5" y="0.5" width="2" height="6" rx="1" fill="none"/></g><g transform="translate(1248 409)" fill="#fff" stroke="#707070" stroke-width="1"><rect width="3" height="7" rx="1.5" stroke="none"/><rect x="0.5" y="0.5" width="2" height="6" rx="1" fill="none"/></g><g transform="translate(1241 404)" fill="#fff" stroke="#707070" stroke-width="1"><path d="M3,0H5A3,3,0,0,1,8,3V9A0,0,0,0,1,8,9H0A0,0,0,0,1,0,9V3A3,3,0,0,1,3,0Z" stroke="none"/><path d="M3,.5H5A2.5,2.5,0,0,1,7.5,3V8.5a0,0,0,0,1,0,0H.5a0,0,0,0,1,0,0V3A2.5,2.5,0,0,1,3,.5Z" fill="none"/></g></g></svg>