<svg id="amex" xmlns="http://www.w3.org/2000/svg" width="89.268" height="59.512" viewBox="0 0 89.268 59.512">
  <path id="Path" d="M89.268,52.073a7.461,7.461,0,0,1-7.439,7.439H7.439A7.461,7.461,0,0,1,0,52.073V7.439A7.461,7.461,0,0,1,7.439,0h74.39a7.461,7.461,0,0,1,7.439,7.439Z" fill="#129ad7" fill-rule="evenodd"/>
  <path id="Shape" d="M19.785,18.931l1.768,4.075H17.879Zm32.464,6.384H46.106V23.107h6.143V21.1H46.106V19.294h6.143V17.588l4.557,4.557-4.557,4.578Zm6.365-4.779L55.6,17.284H43.517V27.322H55.2l3.313-3.293,3.333,3.293h3.112L60.2,22.243l4.9-4.959H61.85ZM41.206,17.284H36.99L33.818,24.01,30.4,17.284H26.188v9.738l-4.356-9.738H17.878L13.219,27.322H16.07l.943-2.288h5.42l1.085,2.288h5.24V19.151l3.714,8.171H34.92l3.694-8.031v8.031H41.2ZM20.688,27.263h0Zm-1.84-.149L17.9,29.331H9.406l6.7-14.054H32.122l1.616,3.1,1.51-3.1H56.834l1.845,1.93,1.982-1.93H70.686l-7.118,7.011,6.81,7.043h-9.7l-2.171-2.07-2.153,2.07H21.727l-1.041-2.217Z" transform="translate(4.588 7.452)" fill="#fff"/>
</svg>
