<svg id="elo" xmlns="http://www.w3.org/2000/svg" width="89.268" height="59.512" viewBox="0 0 89.268 59.512">
  <g id="elo-2" data-name="elo">
    <path id="Path" d="M89.268,52.073a7.461,7.461,0,0,1-7.439,7.439H7.439A7.461,7.461,0,0,1,0,52.073V7.439A7.461,7.461,0,0,1,7.439,0h74.39a7.461,7.461,0,0,1,7.439,7.439Z" fill-rule="evenodd"/>
    <path id="Shape" d="M59.75,25.256a4.155,4.155,0,0,1-5.387,3.105l-.922,2.755A7.067,7.067,0,0,0,62.6,25.838ZM51,29.71l1.924-2.177a4.153,4.153,0,0,1,0-6.219L51,19.138A7.058,7.058,0,0,0,51,29.71Zm3.359-9.226A4.157,4.157,0,0,1,59.75,23.6l2.848-.58a7.065,7.065,0,0,0-9.153-5.286S54.364,20.484,54.364,20.484Zm-8.524-6.3V27.813l2.364.98-1.119,2.687-2.339-.972a2.658,2.658,0,0,1-1.152-.967,3.052,3.052,0,0,1-.452-1.69V14.189ZM35.069,17.369a7.058,7.058,0,0,0-6.02,10.907l12.78-5.463A7.056,7.056,0,0,0,35.069,17.369Zm-4.234,7.493a3.7,3.7,0,0,1-.025-.5,4.153,4.153,0,0,1,7.326-2.617Zm7.031,2.529a4.127,4.127,0,0,1-5.114.545L31.208,30.4a7.045,7.045,0,0,0,8.684-.924Z" transform="translate(13.613 6.921)" fill="#fff"/>
    <path id="Path-2" data-name="Path" d="M24.417,20.918a6.81,6.81,0,0,1-8.824,5.088l-1.512,4.515a11.574,11.574,0,0,0,15-8.647Z" transform="translate(6.869 10.204)" fill="#ed412f" fill-rule="evenodd"/>
    <path id="Path-3" data-name="Path" d="M12.677,31.5l3.154-3.566a6.8,6.8,0,0,1,0-10.188L12.675,14.18a11.567,11.567,0,0,0,0,17.32" transform="translate(4.281 6.917)" fill="#1aa5df" fill-rule="evenodd"/>
    <path id="Path-4" data-name="Path" d="M15.592,17.337a6.81,6.81,0,0,1,8.826,5.094l4.664-.951a11.575,11.575,0,0,0-15-8.659Z" transform="translate(6.87 5.965)" fill="#ffca32" fill-rule="evenodd"/>
  </g>
</svg>
