<svg id="hiper" xmlns="http://www.w3.org/2000/svg" width="89.268" height="59.512" viewBox="0 0 89.268 59.512">
  <g id="hiper-2" data-name="hiper">
    <path id="Path" d="M89.268,52.073a7.461,7.461,0,0,1-7.439,7.439H7.439A7.461,7.461,0,0,1,0,52.073V7.439A7.461,7.461,0,0,1,7.439,0h74.39a7.461,7.461,0,0,1,7.439,7.439Z" fill="#ff7900" fill-rule="evenodd"/>
    <path id="Path-2" data-name="Path" d="M13.895,22.093c0-2.278,0-4.556-.006-6.833,0-.283.067-.384.366-.378.86.019,1.72.016,2.58,0,.278-.006.359.08.356.356-.012,1.592,0,3.184-.012,4.777,0,.3.074.4.388.4q2.319-.025,4.637,0c.278,0,.353-.08.351-.354-.012-1.6,0-3.208-.012-4.81,0-.266.057-.367.344-.363.872.016,1.742.021,2.614,0,.335-.009.339.152.339.4q-.009,5.979,0,11.959c0,.6-.01,1.208.006,1.812.006.234-.077.3-.3.3q-1.341-.016-2.684,0c-.241,0-.315-.073-.314-.317.01-1.79,0-3.58.012-5.369,0-.306-.083-.394-.393-.391-1.534.016-3.068.013-4.6,0-.287,0-.382.085-.379.376.012,1.778,0,3.556.012,5.334,0,.3-.091.37-.373.366q-1.29-.025-2.58,0c-.272,0-.348-.08-.347-.356C13.9,26.7,13.9,24.4,13.895,22.093Z" transform="translate(6.775 7.259)" fill="#fff" fill-rule="evenodd"/>
    <path id="Shape" d="M31.586,23.754c0,.662,0,1.22,0,1.778,0,.2.049.3.272.3.533,0,1.068.046,1.6.034a2.014,2.014,0,0,0,1.937-1.181,4.04,4.04,0,0,0,.08-3.34,1.911,1.911,0,0,0-2.166-1.3,2.041,2.041,0,0,0-1.69,1.9C31.544,22.58,31.611,23.219,31.586,23.754Zm-.336-4.6a3.979,3.979,0,0,1,3.276-1.69,4.152,4.152,0,0,1,3.975,2.54,7.265,7.265,0,0,1,.463,4.157,4.79,4.79,0,0,1-1.233,2.708,4.967,4.967,0,0,1-3.236,1.43c-.765.08-1.532.037-2.3.045-.667.006-.606-.068-.607.591,0,1.024-.007,2.046,0,3.069,0,.241-.067.323-.314.318-.86-.013-1.72-.015-2.58,0-.257,0-.338-.061-.335-.327.015-1.036.007-2.068.006-3.1,0-.552,0-.546-.543-.58a5.513,5.513,0,0,1-2.328-.637,4.5,4.5,0,0,1-2.287-3.386,10.645,10.645,0,0,1-.116-1.945c0-1.454,0-2.906,0-4.359,0-.235.055-.326.309-.321.882.015,1.768.016,2.65,0,.266,0,.335.079.333.336-.01,1.7-.024,3.4,0,5.091a3,3,0,0,0,.836,2.218,1.889,1.889,0,0,0,.815.448c.214.061.341.031.339-.256-.012-2.392.021-4.786-.107-7.177,0-.022,0-.048,0-.07,0-.644-.045-.533.537-.539.652-.006,1.3.01,1.953-.006.274-.007.362.086.366.36A10.232,10.232,0,0,0,31.25,19.156Z" transform="translate(11.264 8.518)" fill="#fff"/>
    <path id="Path-3" data-name="Path" d="M24.769,17.827a1.583,1.583,0,0,1-1.739-1.643,1.621,1.621,0,0,1,1.733-1.635,1.643,1.643,0,1,1,.006,3.278Z" transform="translate(11.234 7.097)" fill="#ffe701" fill-rule="evenodd"/>
    <path id="Shape-2" data-name="Shape" d="M39.358,21.7c.546,0,1.091,0,1.637,0,.162,0,.269-.025.253-.226a1.791,1.791,0,0,0-2.44-1.766,2.127,2.127,0,0,0-1.352,1.8c-.043.207.1.195.232.195Zm1.46,2.236c-1.01,0-2.022,0-3.032,0-.248,0-.362.027-.265.333a2.251,2.251,0,0,0,1.9,1.518,7.768,7.768,0,0,0,3.572-.25c.223-.058.295-.013.333.19.106.558.21,1.114.33,1.668.052.245-.074.33-.272.4a10.847,10.847,0,0,1-3.661.531,6.043,6.043,0,0,1-3.15-.838,4.476,4.476,0,0,1-2.086-3.139,6.3,6.3,0,0,1,.524-4.163,5.252,5.252,0,0,1,7.036-2.142,4.256,4.256,0,0,1,1.912,2.51A6.974,6.974,0,0,1,44.2,23.7c-.039.247-.186.225-.347.225C42.838,23.933,41.828,23.932,40.817,23.932Z" transform="translate(16.758 8.507)" fill="#fff"/>
    <path id="Path-4" data-name="Path" d="M41.814,23.625c0-.942.007-1.882,0-2.824s-.028-1.9-.062-2.854c-.009-.241.068-.292.29-.289.732.012,1.464.016,2.195,0,.251-.007.324.094.332.311.012.418.027.835.045,1.253,0,.079-.012.186.083.208s.112-.091.146-.159A3.092,3.092,0,0,1,46.95,17.5a4.267,4.267,0,0,1,1.11-.046c.195,0,.174.153.174.277,0,.836-.006,1.674.006,2.508,0,.24-.079.308-.306.265a2.725,2.725,0,0,0-1.669.168,2.062,2.062,0,0,0-1.187,2.1c-.006,1.648-.01,3.3.006,4.948,0,.317-.1.39-.394.384-.847-.018-1.7-.016-2.543,0-.259,0-.336-.071-.335-.335C41.818,26.389,41.814,25.007,41.814,23.625Z" transform="translate(20.365 8.507)" fill="#fff" fill-rule="evenodd"/>
  </g>
</svg>
