<svg id="mastercard" xmlns="http://www.w3.org/2000/svg" width="89.268" height="59.512" viewBox="0 0 89.268 59.512">
  <g id="mastercard-2" data-name="mastercard">
    <path id="Path" d="M89.268,52.073a7.461,7.461,0,0,1-7.439,7.439H7.439A7.461,7.461,0,0,1,0,52.073V7.439A7.461,7.461,0,0,1,7.439,0h74.39a7.461,7.461,0,0,1,7.439,7.439Z" fill="#f5f5f5" fill-rule="evenodd"/>
    <path id="Shape" d="M81.829,0H7.439A7.461,7.461,0,0,0,0,7.439V52.073a7.461,7.461,0,0,0,7.439,7.439h74.39a7.461,7.461,0,0,0,7.439-7.439V7.439A7.461,7.461,0,0,0,81.829,0Zm0,1.488A5.957,5.957,0,0,1,87.78,7.439V52.073a5.957,5.957,0,0,1-5.951,5.951H7.439a5.957,5.957,0,0,1-5.951-5.951V7.439A5.957,5.957,0,0,1,7.439,1.488Z" fill="#d0d0d0"/>
    <circle id="Oval" cx="12.794" cy="12.794" r="12.794" transform="translate(39.681 16.98)" fill="#f79e1b"/>
    <circle id="Oval-2" data-name="Oval" cx="12.794" cy="12.794" r="12.794" transform="translate(24 16.945)" fill="#eb001b"/>
    <path id="Path-2" data-name="Path" d="M26.671,23.3A12.775,12.775,0,0,0,31.6,33.427a12.794,12.794,0,0,0,.049-20.221A12.758,12.758,0,0,0,26.671,23.3Z" transform="translate(13.01 6.442)" fill="#ff5f00" fill-rule="evenodd"/>
  </g>
</svg>
