<svg id="visa" xmlns="http://www.w3.org/2000/svg" width="89.268" height="59.512" viewBox="0 0 89.268 59.512">
  <g id="visa-2" data-name="visa">
    <path id="Path" d="M89.268,52.073a7.461,7.461,0,0,1-7.439,7.439H7.439A7.461,7.461,0,0,1,0,52.073V7.439A7.461,7.461,0,0,1,7.439,0h74.39a7.461,7.461,0,0,1,7.439,7.439Z" fill="#152884" fill-rule="evenodd"/>
    <path id="Shape" d="M81.829,0H7.439A7.461,7.461,0,0,0,0,7.439V52.073a7.461,7.461,0,0,0,7.439,7.439h74.39a7.461,7.461,0,0,0,7.439-7.439V7.439A7.461,7.461,0,0,0,81.829,0Zm0,1.488A5.957,5.957,0,0,1,87.78,7.439V52.073a5.957,5.957,0,0,1-5.951,5.951H7.439a5.957,5.957,0,0,1-5.951-5.951V7.439A5.957,5.957,0,0,1,7.439,1.488Z" fill="#d0d0d0"/>
    <path id="Shape-2" data-name="Shape" d="M45.942,24.918c-.412-1.971-.815-3.908-1.22-5.846l-.058-.006c-.7,1.942-1.407,3.883-2.122,5.85ZM36.2,30.536c.244-.588.485-1.166.728-1.745q2.689-6.425,5.38-12.852A1.884,1.884,0,0,1,44.19,14.68q1.569.007,3.136,0c.2,0,.289.04.335.26q1.587,7.65,3.193,15.295c.021.1.033.2.051.317H47.121c-.143-.686-.3-1.361-.42-2.044-.046-.256-.147-.326-.4-.324-1.553.013-3.108.01-4.661,0a.337.337,0,0,0-.382.269c-.216.641-.448,1.277-.69,1.909a.342.342,0,0,1-.245.192c-1.338.012-2.675.007-4.013.006A.53.53,0,0,1,36.2,30.536Z" transform="translate(17.658 7.16)" fill="#fff"/>
    <path id="Path-2" data-name="Path" d="M40.928,15.2c-.238,1.113-.475,2.212-.711,3.321-.451-.15-.879-.314-1.32-.436a6.413,6.413,0,0,0-2.959-.192,2.77,2.77,0,0,0-1.027.43.987.987,0,0,0-.039,1.705,18.386,18.386,0,0,0,1.579.979c.659.4,1.355.745,1.974,1.2a4,4,0,0,1,1.564,4.637,5.173,5.173,0,0,1-3.4,3.468,10.506,10.506,0,0,1-4.7.539,11.839,11.839,0,0,1-2.952-.591c-.158-.055-.312-.119-.489-.187q.373-1.75.732-3.431c.68.24,1.332.513,2.007.7a6.341,6.341,0,0,0,3.072.143,3.148,3.148,0,0,0,1.14-.513,1.118,1.118,0,0,0,.086-1.788,10.8,10.8,0,0,0-1.446-.969c-.742-.458-1.541-.838-2.238-1.357a4.039,4.039,0,0,1-.7-5.92,6.1,6.1,0,0,1,3.519-2.153,10.537,10.537,0,0,1,6.082.326C40.773,15.135,40.84,15.165,40.928,15.2Z" transform="translate(13.877 7.063)" fill="#fff" fill-rule="evenodd"/>
    <path id="Path-3" data-name="Path" d="M31.28,14.706c-.109.521-.213,1.033-.323,1.543q-1.489,6.961-2.971,13.923c-.064.3-.167.4-.485.4-1.12-.022-2.241-.009-3.361-.009h-.348c.106-.5.2-.963.3-1.427q1.522-7.112,3.043-14.226c.031-.147.064-.232.243-.232,1.253.007,2.5,0,3.757.006C31.173,14.684,31.209,14.694,31.28,14.706Z" transform="translate(11.606 7.159)" fill="#fff" fill-rule="evenodd"/>
    <path id="Path-4" data-name="Path" d="M12,14.681h.305q3.263,0,6.526,0A1.913,1.913,0,0,1,20.9,16.392l1.687,8.922a1.029,1.029,0,0,0,.04.113c.061-.134.107-.225.144-.32q2.009-5.073,4.008-10.148a.382.382,0,0,1,.428-.286c1.224.01,2.449,0,3.672,0h.32c-.061.159-.107.289-.161.415Q27.851,22.7,24.665,30.309a.336.336,0,0,1-.366.254q-1.922-.016-3.842,0c-.2,0-.269-.062-.318-.253-1.077-4.187-2.166-8.37-3.24-12.559a1.922,1.922,0,0,0-1.094-1.345,18.5,18.5,0,0,0-3.685-1.223c-.062-.015-.123-.034-.205-.057.015-.08.027-.152.04-.223S11.983,14.78,12,14.681Z" transform="translate(5.812 7.158)" fill="#fff" fill-rule="evenodd"/>
  </g>
</svg>
